<svg width="262" height="137" viewBox="0 0 262 137" fill="none" xmlns="http://www.w3.org/2000/svg">
<path d="M20.7689 88.0817L26.2134 68.0571H0.00609361L0.37521 66.4884L42.9159 25.2396H46.9761L36.2718 65.1042H47.4375L46.6993 68.0571H35.5335L30.0891 88.0817H20.7689ZM4.25093 65.0119H26.9516L35.1644 34.7444L4.25093 65.0119ZM73.1401 76.5468C63.3586 76.5468 53.3001 71.8406 53.3001 56.7991C53.3001 42.6804 62.9894 23.8554 82.1835 23.8554C91.9651 23.8554 102.023 28.6539 102.023 43.6954C102.023 57.8141 92.3342 76.5468 73.1401 76.5468ZM72.6787 74.4244C88.0894 74.4244 92.9801 51.816 92.9801 40.9271C92.9801 30.1304 89.0121 25.8856 82.6449 25.8856C67.2343 25.8856 62.3435 48.5862 62.3435 59.4752C62.3435 70.2718 66.3115 74.4244 72.6787 74.4244ZM119.27 88.0817L124.714 68.0571H98.5068L98.8759 66.4884L141.417 25.2396H145.477L134.772 65.1042H145.938L145.2 68.0571H134.034L128.59 88.0817H119.27ZM102.752 65.0119H125.452L133.665 34.7444L102.752 65.0119Z" fill="black"/>
<path d="M71.9858 89.8285C71.9858 97.6722 60.5432 106.254 42.0874 108.653C41.9951 109.853 41.9028 111.053 41.9028 112.252C41.9028 121.572 45.8708 125.171 51.9613 125.171C57.498 125.171 62.2965 122.034 66.08 115.574L66.9105 115.943C62.3888 125.079 55.191 133.384 45.1326 133.384C38.7654 133.384 33.4132 129.878 33.4132 120.188C33.4132 102.102 50.0234 84.384 65.434 84.384C69.4943 84.384 71.9858 86.2296 71.9858 89.8285ZM57.498 87.5215C51.7767 89.4593 44.1175 96.8417 42.272 107.546C51.223 105.977 61.8351 100.994 61.8351 92.5046C61.8351 89.8285 60.4509 87.5215 57.498 87.5215ZM108.027 84.4763C109.042 84.4763 110.519 84.7531 111.349 85.3068L107.75 96.934H106.92C105.628 95.9189 104.152 95.4575 102.86 95.4575C97.9689 95.4575 95.2005 98.1336 83.481 122.034L80.805 132H71.4848L81.7277 93.6119C82.5583 90.4744 81.6355 88.998 77.7597 89.4593L76.191 89.6439L76.4678 88.7211L93.4472 84.384L84.8652 116.774C98.1534 89.0902 102.86 84.4763 108.027 84.4763ZM144.211 84.4763C145.226 84.4763 146.702 84.7531 147.533 85.3068L143.934 96.934H143.103C141.812 95.9189 140.335 95.4575 139.043 95.4575C134.152 95.4575 131.384 98.1336 119.665 122.034L116.988 132H107.668L117.911 93.6119C118.742 90.4744 117.819 88.998 113.943 89.4593L112.374 89.6439L112.651 88.7211L129.631 84.384L121.049 116.774C134.337 89.0902 139.043 84.4763 144.211 84.4763ZM157.084 133.384C150.717 133.384 142.135 130.339 142.135 118.989C142.135 105.885 153.486 84.384 170.742 84.384C177.201 84.384 185.691 87.4292 185.691 98.7795C185.691 111.975 174.341 133.384 157.084 133.384ZM157.638 131.539C167.512 131.539 175.725 108.838 175.725 95.5498C175.725 87.9829 173.141 86.2296 170.096 86.2296C160.222 86.2296 152.101 108.93 152.101 122.218C152.101 129.878 154.777 131.539 157.638 131.539ZM223.877 84.4763C224.892 84.4763 226.369 84.7531 227.199 85.3068L223.6 96.934H222.77C221.478 95.9189 220.001 95.4575 218.71 95.4575C213.819 95.4575 211.05 98.1336 199.331 122.034L196.655 132H187.335L197.578 93.6119C198.408 90.4744 197.485 88.998 193.61 89.4593L192.041 89.6439L192.318 88.7211L209.297 84.384L200.715 116.774C214.003 89.0902 218.71 84.4763 223.877 84.4763Z" fill="black"/>
<path d="M193.311 7.16013L189.069 45.5565L255.848 49.4234L188.259 50.2334L179.341 87.8197L183.582 49.4234L144.22 44.7465L184.392 44.7465L193.311 7.16013Z" fill="black"/>
<path d="M172.857 32.8016L186.205 45.6881L200.632 34.0207L187.745 47.3693L199.413 61.7956L186.064 48.9091L171.638 60.5766L184.524 47.2279L172.857 32.8016Z" fill="black"/>
</svg>
