<svg width="234" height="82" viewBox="0 0 234 82" fill="none" xmlns="http://www.w3.org/2000/svg">
<rect width="231" height="82" transform="translate(3)" fill="white"/>
<path d="M23.274 67.62L19.058 28.56L9.696 58.94C7.898 64.706 9.386 65.946 13.726 66.566L13.664 67H0.0859999L0.21 66.566C4.178 66.008 6.286 64.644 8.022 59.002L17.074 30.606C18.624 25.646 17.942 24.654 14.718 24.034L14.904 23.6H25.568L28.978 57.452L50.492 23.6H61.032L60.846 24.034C57.436 24.468 56.072 25.522 55.018 30.668L48.632 60.304C47.764 64.582 48.384 66.132 51.422 66.566L51.36 67H35.302L35.426 66.566C38.774 66.07 40.634 64.086 41.688 59.498L48.818 28.498L23.708 67.62H23.274ZM82.128 62.288C83.306 62.288 85.538 60.614 88.266 56.956L88.886 57.39C84.36 64.272 80.082 67.93 76.858 67.93C75.184 67.93 74.192 66.876 74.192 64.892C74.192 63.466 74.75 61.606 75.308 59.994L78.222 51.004C72.084 60.924 65.76 67.93 61.668 67.93C59.25 67.93 57.08 66.38 57.08 62.102C57.08 55.034 62.598 44.618 71.092 38.604C73.82 36.744 77.912 35.008 81.012 35.008C82.19 35.008 83.182 35.194 84.112 35.69L89.94 33.83L81.508 60.242C81.012 61.668 81.446 62.288 82.128 62.288ZM65.884 62.288C68.55 62.288 72.828 57.638 79.09 48.276L81.942 39.534C80.454 37.984 78.408 37.426 75.432 37.426C69.17 40.34 64.024 51.004 64.024 59.002C64.024 61.606 64.954 62.288 65.884 62.288ZM120.931 35.938L120.559 37.24H115.041C116.467 38.48 117.273 40.278 117.273 42.634C117.273 48.276 112.747 55.654 103.323 55.654C102.021 55.654 100.781 55.468 99.6648 55.158C97.7428 55.716 96.6888 56.46 96.6888 57.7C96.6888 58.878 97.5568 59.374 99.8508 60.242L110.205 64.148C113.553 65.388 115.661 67.248 115.661 70.348C115.661 75.804 109.337 80.33 99.2308 80.33C91.8528 80.33 86.4588 77.912 86.4588 73.448C86.4588 69.79 89.8688 67.496 95.9448 65.76C93.4028 64.706 91.7908 63.404 91.7908 60.986C91.7908 58.63 93.3408 56.336 98.6728 54.786C96.1308 53.67 94.5188 51.5 94.5188 48.214C94.5188 42.51 99.0448 35.194 108.469 35.194C110.081 35.194 111.569 35.442 112.871 35.938H120.931ZM103.819 54.786C108.655 54.786 111.445 46.664 111.445 41.27C111.445 37.55 110.143 36.062 107.973 36.062C103.137 36.062 100.347 44.184 100.347 49.578C100.347 53.298 101.649 54.786 103.819 54.786ZM107.353 69.728L97.2468 66.256C97.1848 66.256 97.1228 66.194 97.0608 66.194C94.2088 67.248 91.7908 68.736 91.7908 71.712C91.7908 75.99 95.9448 78.78 102.207 78.78C107.353 78.78 111.073 76.92 111.073 73.758C111.073 71.836 109.771 70.534 107.353 69.728ZM134.186 31.288C131.892 31.288 130.218 29.49 130.218 27.32C130.218 25.15 131.892 23.476 134.186 23.476C136.418 23.476 138.154 25.274 138.154 27.382C138.154 29.552 136.48 31.288 134.186 31.288ZM123.832 67.806C122.468 67.806 121.166 67.124 121.166 64.954C121.166 64.396 121.29 63.714 121.538 62.908L127.614 41.208C128.234 39.1 127.552 38.108 124.948 38.418L123.894 38.542L124.08 37.922L135.488 35.008L128.482 60.056C128.048 61.482 128.544 62.102 129.474 62.102C130.776 62.102 133.194 59.994 135.612 56.894L136.232 57.328C132.574 62.288 127.614 67.806 123.832 67.806ZM147.692 67.93C142.546 67.93 139.446 64.644 139.446 58.444C139.446 46.292 150.978 35.008 159.968 35.008C163.006 35.008 165.114 36.372 166.106 37.364L162.448 42.634H161.828C160.402 40.34 157.55 38.108 153.83 38.046C148.684 41.208 144.902 46.85 144.902 54.042C144.902 60.118 147.692 62.412 151.536 62.412C155.07 62.412 158.17 60.49 161.208 55.902L161.704 56.212C158.232 62.412 154.326 67.93 147.692 67.93Z" fill="black"/>
<path d="M188.162 4.81071L185.312 30.6083L230.179 33.2063L184.768 33.7506L178.776 59.0039L181.626 33.2063L155.179 30.064L182.17 30.064L188.162 4.81071Z" fill="black"/>
<path d="M174.419 22.0388L183.388 30.697L193.081 22.8579L184.422 31.8265L192.262 41.5191L183.293 32.861L173.6 40.7001L182.258 31.7315L174.419 22.0388Z" fill="black"/>
</svg>
