<svg width="76" height="76" viewBox="0 0 76 76" fill="none" xmlns="http://www.w3.org/2000/svg">
<path d="M66.9761 66.9955C60.3225 72.085 52.8862 75.217 43.8843 76C39.9704 76 36.4479 75.6085 32.534 74.8255C25.8805 72.868 20.0097 69.736 14.9216 64.255C11.0078 59.557 8.26805 54.859 7.09389 48.595C5.13696 39.5905 6.31112 30.9775 11.7905 23.1475C15.313 18.4495 19.6183 15.3174 23.9235 12.1854C17.6613 12.5769 12.1819 16.8835 8.26805 21.5815C3.96279 27.0625 1.22308 33.3265 0.831697 40.765C0.0489234 50.161 3.57141 59.1655 9.05083 66.9955C6.7025 63.0805 4.35418 59.557 2.39725 55.642C-0.342464 48.595 -0.733851 40.765 1.22308 32.5435C3.18002 25.888 6.31112 20.0155 11.7905 14.926C18.4441 9.44495 26.2719 5.52994 35.2738 5.92144C43.1015 6.31294 50.1465 9.44495 56.4087 14.5344C59.5398 17.275 60.7139 21.19 63.845 23.539C63.0622 15.3174 56.4087 9.05344 49.3637 5.13844C42.3187 1.22344 34.8824 -0.342563 26.6632 1.22344C20.0097 2.39794 14.5302 5.13844 9.05083 9.05344C12.9647 6.70444 16.4872 4.35544 20.4011 2.39794C27.446 -0.342563 35.2738 -0.734063 43.4929 1.22344C56.4087 4.74694 66.1933 13.7514 69.3244 27.454C72.4555 41.9395 64.6278 56.425 52.1034 63.472C52.4948 64.255 53.2776 63.8635 53.6689 63.8635C61.4967 61.5145 66.9761 56.425 70.89 49.378C77.9349 36.4585 75.978 20.7985 66.9761 9.05344C69.3244 12.5769 71.6728 16.1005 73.2383 20.0155C76.3694 27.454 76.7608 35.284 74.8038 43.5055C72.8469 50.161 69.7158 56.0335 64.2364 61.123C52.8862 70.9105 36.8393 73.2595 23.5321 64.255C18.8355 61.123 15.313 56.8165 12.5733 52.1185L12.1819 52.51C12.9647 60.7315 19.6183 66.9955 26.6632 70.9105C39.579 78.349 55.2345 76 66.9761 66.9955Z" fill="white"/>
</svg>
